# xmcd CD database file
#
# Track frame offsets:
#	150
#	30019
#	45624
#	65792
#	85427
#	115102
#	136297
#	156997
#
# Disc length: 2380 seconds
#
# Revision: 0
# Processed by: cddbd v1.4PL0 Copyright (c) Steve Scherf et al.
# Submitted via: Feurio! 1.65 - http://www.feurio.com
#
DISCID=64094a08
DTITLE=Greg Perry - Smokin'
DYEAR=1900
DGENRE=blues
TTITLE0=Where There's Smoke, There's Fire
TTITLE1=Melodie
TTITLE2=I Can See The Handwriting On The Wall
TTITLE3=How's Your Love Life Baby
TTITLE4=I'll Always Be In Love With Love
TTITLE5=A Taste Of You Is A Taste Of Love
TTITLE6=Come Fly With Me
TTITLE7=Let's Get Away From It All
EXTD=
EXTT0=
EXTT1=
EXTT2=
EXTT3=
EXTT4=
EXTT5=
EXTT6=
EXTT7=
PLAYORDER=
